<?xml version="1.0" encoding="utf-8"?>
<!-- Generator: Adobe Illustrator 21.1.0, SVG Export Plug-In . SVG Version: 6.00 Build 0)  -->
<svg version="1.1" id="Calque_1" xmlns="http://www.w3.org/2000/svg" xmlns:xlink="http://www.w3.org/1999/xlink" x="0px" y="0px"
	 viewBox="0 0 472.2 227.8" style="enable-background:new 0 0 472.2 227.8;" xml:space="preserve">
<style type="text/css">
	.st0{fill:#FFFFFF;}
	.st1{stroke:#FFFFFF;stroke-width:0.5;stroke-miterlimit:10;}
	.st2{fill:#1B75BC;}
	.st3{fill:#FFDE17;}
	.st4{fill:#00A651;}
	.st5{fill:none;stroke:#BE1E2D;stroke-miterlimit:10;}
	.st6{fill:url(#SVGID_1_);}
	.st7{fill:url(#SVGID_2_);}
	.st8{fill:#329ED9;}
	.st9{fill:url(#SVGID_3_);}
	.st10{fill:url(#SVGID_4_);}
	.st11{fill:url(#SVGID_5_);}
	.st12{fill:url(#SVGID_6_);}
	.st13{fill:url(#SVGID_7_);}
	.st14{fill:url(#SVGID_8_);}
	.st15{fill:#006838;}
	.st16{fill:#D7DF23;}
	.st17{fill:url(#SVGID_9_);}
	.st18{fill:url(#SVGID_10_);}
	.st19{fill:#EC008C;}
	.st20{fill:url(#SVGID_11_);}
	.st21{fill:url(#SVGID_12_);}
	.st22{fill:url(#SVGID_13_);}
	.st23{fill:url(#SVGID_14_);}
	.st24{fill:url(#SVGID_15_);}
	.st25{fill:url(#SVGID_16_);}
	.st26{fill:url(#SVGID_17_);}
	.st27{fill:url(#SVGID_18_);}
	.st28{fill:url(#SVGID_19_);}
	.st29{fill:url(#SVGID_20_);}
	.st30{fill:url(#SVGID_21_);}
	.st31{fill:url(#SVGID_22_);}
	.st32{fill:url(#SVGID_23_);}
	.st33{fill:url(#SVGID_24_);}
	.st34{fill:url(#SVGID_25_);}
	.st35{fill:url(#SVGID_26_);}
	.st36{fill:url(#SVGID_27_);}
	.st37{fill:url(#SVGID_28_);}
	.st38{fill:url(#SVGID_29_);}
	.st39{fill:url(#SVGID_30_);}
	.st40{fill:url(#SVGID_31_);}
	.st41{fill:url(#SVGID_32_);}
	.st42{fill:url(#SVGID_33_);}
	.st43{fill:url(#SVGID_34_);}
	.st44{fill:url(#SVGID_35_);}
	.st45{fill:url(#SVGID_36_);}
	.st46{fill:url(#SVGID_37_);}
	.st47{fill:url(#SVGID_38_);}
	.st48{fill:url(#SVGID_39_);}
	.st49{fill:url(#SVGID_40_);}
	.st50{fill:url(#SVGID_41_);}
	.st51{fill:url(#SVGID_42_);}
	.st52{fill:url(#SVGID_43_);}
	.st53{fill:url(#SVGID_44_);}
	.st54{fill:url(#SVGID_45_);}
	.st55{fill:url(#SVGID_46_);}
	.st56{fill:url(#SVGID_47_);}
	.st57{fill:url(#SVGID_48_);}
	.st58{fill:url(#SVGID_49_);}
	.st59{fill:url(#SVGID_50_);}
	.st60{fill:url(#SVGID_51_);}
	.st61{fill:url(#SVGID_52_);}
	.st62{fill:url(#SVGID_53_);}
	.st63{fill:url(#SVGID_54_);}
	.st64{fill:url(#SVGID_55_);}
	.st65{fill:url(#SVGID_56_);}
	.st66{fill:url(#SVGID_57_);}
	.st67{fill:url(#SVGID_58_);}
	.st68{fill:url(#SVGID_59_);}
	.st69{fill:url(#SVGID_60_);}
	.st70{fill:url(#SVGID_61_);}
	.st71{fill:url(#SVGID_62_);}
	.st72{fill:url(#SVGID_63_);}
	.st73{fill:url(#SVGID_64_);}
	.st74{fill:url(#SVGID_65_);}
	.st75{fill:url(#SVGID_66_);}
	.st76{fill:url(#SVGID_67_);}
	.st77{fill:url(#SVGID_68_);}
	.st78{fill:url(#SVGID_69_);}
	.st79{fill:url(#SVGID_70_);}
	.st80{fill:url(#SVGID_71_);}
	.st81{fill:url(#SVGID_72_);}
	.st82{fill:url(#SVGID_73_);}
	.st83{fill:url(#SVGID_74_);}
	.st84{fill:url(#SVGID_75_);}
	.st85{fill:url(#SVGID_76_);}
	.st86{fill:url(#SVGID_77_);}
	.st87{fill:url(#SVGID_78_);}
	.st88{fill:url(#SVGID_79_);}
	.st89{fill:url(#SVGID_80_);}
	.st90{fill:url(#SVGID_81_);}
	.st91{fill:url(#SVGID_82_);}
	.st92{fill:url(#SVGID_83_);}
	.st93{fill:url(#SVGID_84_);}
	.st94{fill:url(#SVGID_85_);}
	.st95{fill:#6BBD45;}
	.st96{fill:url(#SVGID_86_);}
	.st97{fill:url(#SVGID_87_);}
	.st98{fill:url(#SVGID_88_);}
	.st99{fill:url(#SVGID_89_);}
	.st100{fill:url(#SVGID_90_);}
	.st101{fill:url(#SVGID_91_);}
	.st102{fill:url(#SVGID_92_);}
	.st103{fill:url(#SVGID_93_);}
	.st104{fill:url(#SVGID_94_);}
	.st105{fill:url(#SVGID_95_);}
	.st106{fill:url(#SVGID_96_);}
	.st107{fill:url(#SVGID_97_);}
	.st108{fill:url(#SVGID_98_);}
	.st109{fill:url(#SVGID_99_);}
	.st110{fill:url(#SVGID_100_);}
	.st111{fill:url(#SVGID_101_);}
	.st112{fill:url(#SVGID_102_);}
	.st113{fill:url(#SVGID_103_);}
	.st114{fill:url(#SVGID_104_);}
	.st115{fill:url(#SVGID_105_);}
	.st116{fill:url(#SVGID_106_);}
	.st117{fill:url(#SVGID_107_);}
	.st118{fill:url(#SVGID_108_);}
	.st119{fill:url(#SVGID_109_);}
	.st120{fill:url(#SVGID_110_);}
	.st121{fill:url(#SVGID_111_);}
	.st122{fill:url(#SVGID_112_);}
	.st123{fill:url(#SVGID_113_);}
	.st124{fill:#939598;}
	.st125{fill:url(#SVGID_114_);}
	.st126{fill:url(#SVGID_115_);}
	.st127{fill:url(#SVGID_116_);}
	.st128{fill:url(#SVGID_117_);}
	.st129{fill:url(#SVGID_118_);}
	.st130{fill:url(#SVGID_119_);}
	.st131{fill:url(#SVGID_120_);}
	.st132{fill:url(#SVGID_121_);}
	.st133{fill:url(#SVGID_122_);}
	.st134{fill:url(#SVGID_123_);}
	.st135{fill:#E6E7E8;}
</style>
<linearGradient id="SVGID_1_" gradientUnits="userSpaceOnUse" x1="215.4716" y1="114.7957" x2="261.2708" y2="114.7957">
	<stop  offset="0" style="stop-color:#1B75BC"/>
	<stop  offset="1" style="stop-color:#00446F;stop-opacity:0.95"/>
</linearGradient>
<path class="st6" d="M224.7,137.7c0,2.1-1.7,3.8-3.8,3.8h-10.4c-2.7,0-4.9-2.2-4.9-4.9V93c0-2.7,2.2-4.9,4.9-4.9h11.3
	c1.7,0,3.2,1.1,3.7,2.7l5.6,16.8c0.2,0.6,1.1,0.5,1.1-0.2V91.9c0-2.1,1.7-3.8,3.8-3.8h10.8c2.5,0,4.6,2,4.6,4.6v44.2
	c0,2.6-2.1,4.7-4.7,4.7h-10.8c-2.1,0-4-1.4-4.7-3.4l-5.4-16.1c-0.2-0.6-1.1-0.5-1.1,0.2V137.7z"/>
<linearGradient id="SVGID_2_" gradientUnits="userSpaceOnUse" x1="257.1499" y1="114.7957" x2="295.3159" y2="114.7957">
	<stop  offset="0" style="stop-color:#1B75BC"/>
	<stop  offset="0.6763" style="stop-color:#005689;stop-opacity:0.9662"/>
	<stop  offset="1" style="stop-color:#00446F;stop-opacity:0.95"/>
</linearGradient>
<path class="st7" d="M293.3,90v11.4c0,1.1-0.9,1.9-1.9,1.9h-15.3c-1.1,0-1.9,0.9-1.9,1.9v0c0,1.1,0.9,1.9,1.9,1.9h15.3
	c1.1,0,1.9,0.9,1.9,1.9v11.4c0,1.1-0.9,1.9-1.9,1.9h-15.3c-1.1,0-1.9,0.9-1.9,1.9l0,0c0,1.1,0.9,1.9,1.9,1.9h15.3
	c1.1,0,1.9,0.9,1.9,1.9v11.4c0,1.1-0.9,1.9-1.9,1.9h-34.3c-1.1,0-1.9-0.9-1.9-1.9V90c0-1.1,0.9-1.9,1.9-1.9h34.3
	C292.5,88.1,293.3,88.9,293.3,90z"/>
<linearGradient id="SVGID_3_" gradientUnits="userSpaceOnUse" x1="323.7793" y1="114.7957" x2="342.8623" y2="114.7957">
	<stop  offset="0" style="stop-color:#B3D334;stop-opacity:0.95"/>
	<stop  offset="1" style="stop-color:#85A234;stop-opacity:0.95"/>
</linearGradient>
<path class="st9" d="M335.6,93.4v42.9c0,2.9-2.4,5.3-5.3,5.3h-8.5c-2.9,0-5.3-2.4-5.3-5.3V93.4c0-2.9,2.4-5.3,5.3-5.3h8.5
	C333.3,88.1,335.6,90.4,335.6,93.4z"/>
<linearGradient id="SVGID_4_" gradientUnits="userSpaceOnUse" x1="345.2339" y1="114.7957" x2="379.5833" y2="114.7957">
	<stop  offset="0" style="stop-color:#B3D334;stop-opacity:0.95"/>
	<stop  offset="1" style="stop-color:#85A234;stop-opacity:0.95"/>
</linearGradient>
<path class="st10" d="M366.2,103.3v35c0,1.7-1.4,3.1-3.1,3.1h-12.6c-1.8,0-3.3-1.5-3.3-3.3v-34.4c0-0.2-0.2-0.4-0.4-0.4h-3.3
	c-2.2,0-4-1.8-4-4v-8.1c0-1.8,1.4-3.2,3.2-3.2h27.8c1.8,0,3.3,1.5,3.3,3.3v8.7c0,1.8-1.4,3.2-3.2,3.2H366.2z"/>
<linearGradient id="SVGID_5_" gradientUnits="userSpaceOnUse" x1="155.7118" y1="114.7957" x2="209.1443" y2="114.7957">
	<stop  offset="0" style="stop-color:#1B75BC"/>
	<stop  offset="1" style="stop-color:#00446F;stop-opacity:0.95"/>
</linearGradient>
<path class="st11" d="M193.9,95.9c-5.2-5.2-11.5-7.8-18.9-7.8c-7.4,0-13.7,2.6-18.9,7.8c-5.2,5.2-7.8,11.5-7.8,18.9
	c0,7.4,2.6,13.7,7.8,18.9c5.2,5.2,11.5,7.8,18.9,7.8c7.4,0,13.7-2.6,18.9-7.8c5.2-5.2,7.8-11.5,7.8-18.9
	C201.8,107.4,199.1,101.1,193.9,95.9z M175.6,125.1c-3.7,1.5-7.8,2.3-11.7,3.4c1.1-3,5.2-7.5,5.2-7.5c-3.1,2.1-5.1,4.4-6.1,5.8
	c-1.3-4.4-1.1-8.8,1-13.1c2.3-4.7,5.9-7.8,10.9-9.4c3.3-1,6.7-1.9,10.2-2.9C188.9,110.5,184.6,121.6,175.6,125.1z"/>
<linearGradient id="SVGID_6_" gradientUnits="userSpaceOnUse" x1="85.2096" y1="100.95" x2="105.2644" y2="100.95">
	<stop  offset="0" style="stop-color:#1B75BC"/>
	<stop  offset="1" style="stop-color:#00446F;stop-opacity:0.95"/>
</linearGradient>
<path class="st12" d="M97.7,98h-9.5c-1.7,0-3,1.3-3,3l0,0c0,1.7,1.3,3,3,3h9.5c1.7,0,3-1.3,3-3l0,0C100.7,99.3,99.3,98,97.7,98z"/>
<linearGradient id="SVGID_7_" gradientUnits="userSpaceOnUse" x1="86.7396" y1="124.5567" x2="101.6769" y2="124.5567">
	<stop  offset="0" style="stop-color:#1B75BC"/>
	<stop  offset="1" style="stop-color:#00446F;stop-opacity:0.95"/>
</linearGradient>
<path class="st13" d="M92.8,121.4h-2.9c-1.7,0-3.1,1.4-3.1,3.1v0c0,1.7,1.4,3.1,3.1,3.1h2.9c1.7,0,3.1-1.4,3.1-3.1v0
	C96,122.8,94.6,121.4,92.8,121.4z"/>
<g>
	<linearGradient id="SVGID_8_" gradientUnits="userSpaceOnUse" x1="52.5614" y1="121.4799" x2="400.4807" y2="121.4799">
		<stop  offset="0" style="stop-color:#1B75BC"/>
		<stop  offset="1" style="stop-color:#00446F;stop-opacity:0.95"/>
	</linearGradient>
	<path class="st14" d="M383.8,111.5c-0.2,1.5,0.2,2.8,1.2,3.8c1.9,2,2.8,4.3,2.7,7l0,0.6l0.6,0.6c-0.2,0-0.4,0-0.8,0
		c0.6,0.7,1,1.1,1.3,1.5c-0.2,0.3-0.5,0.6-1,1.2c1,0.2,0.3,0.1,1,0.2l-0.4,0.4c-0.1,0-0.1,0-0.1,0.1c0,0.1,0.4,0.3-0.1,0.3
		c0,0.7-0.7,15.8-2.1,18.2c-1,1.7-2.8,1.9-3.2,2l-252.6,0c-29.5,0.4-54.8-1.6-64.7-4.8c-0.4-0.1-0.4-0.8,0.1-0.9
		c7.8-1.4,23.4-0.9,38.1-0.6c0,0,0,0,0.1,0h1.1h9.9h5.9c15.4,0,24.1-6.7,26.2-20c2.8-17.7-11.5-33.5-29.4-33.5H105
		c-1.9,0-3.4,1.5-3.4,3.4c0,1.3,1.1,2.4,2.4,2.4h4.2c1.2,0,2.2,1,2.2,2.2c0,1.2-1,2.2-2.2,2.2h-3.8c-1.5,0-2.8,1.2-2.8,2.8v0.4
		c0,1.6,1.3,2.8,2.8,2.8h11.1c1.2,0,2.2,1,2.2,2.2c0,1.2-1,2.2-2.2,2.2h-11.3c0,0,0,0,0,0H102c-2.3,0-4.2,1.9-4.2,4.2
		s1.9,4.2,4.2,4.2h5c0,0,0,0,0,0h5.1c1.2,0,2.2,1,2.2,2.2c0,1.2-1,2.2-2.2,2.2h-5.3c0,0,0,0,0,0h-6.5c-1.7,0-3.1,1.4-3.1,3.1
		c0,1.7,1.4,3.1,3.1,3.1h5.6c0,0,0,0,0,0H123c1.2,0,2.2,1,2.2,2.2c0,1.2-1,2.2-2.2,2.2h-15c0,0,0,0,0,0H97c0,0,0,0-0.1,0
		c-26.5-0.6-41.2,1.7-43.8,6.9c-0.5,1-1.4,3.7,1.1,6.6c7.3,8.5,48.4,9.6,69,9.6c2.9,0,5.3,0,7.2,0l253,0c0.5,0,5.8,0,8.8-4.8
		c3-5,2.6-20.5,2.7-22.9c-0.8-0.2,0.5-0.4-0.4-0.6c1.8-0.9-0.1-1.3,0.4-1.8c0.3-0.4,0.3-0.8,0.7-1.3c0.2-0.3,0.1-1,0.1-1
		c-0.3-3.4,1.8-5.6,3.8-7.9c0.4-0.4,0.8-0.9,0.8-1.4c0.1-1.9,0.2-3.9,0.2-5.9c-5.6-0.2-11-0.3-16.5-0.5
		C383.9,108.7,384,110.1,383.8,111.5z"/>
	<linearGradient id="SVGID_9_" gradientUnits="userSpaceOnUse" x1="381.1342" y1="99.5263" x2="403.3263" y2="99.5263">
		<stop  offset="0" style="stop-color:#1B75BC"/>
		<stop  offset="1" style="stop-color:#00446F;stop-opacity:0.95"/>
	</linearGradient>
	<path class="st17" d="M401.3,103.7c-1,0-1.9-0.1-2.9-0.1c0,0,0-0.1,0-0.1l0.3-9.6c0-0.7-0.5-1.2-1.2-1.3c-0.7,0-1.2,0.5-1.3,1.2
		l-0.3,9.6c0,0,0,0.1,0,0.1c-1.2,0-2.4-0.1-3.6-0.1c-1.3,0-2.6-0.1-3.9-0.1c0,0,0-0.1,0-0.1l0.3-9.6c0-0.7-0.5-1.2-1.2-1.3
		c-0.7,0-1.2,0.5-1.3,1.2l-0.3,9.6c0,0,0,0.1,0,0.1c-0.9,0-1.8-0.1-2.7-0.1c-1.1,0-2.3,0-2.3,1.5c0,1.3,1.1,1.5,2.2,1.5
		c5.9,0.2,11.8,0.3,17.7,0.5c1.1,0,2.1,0,2.3-1.4C403.4,103.9,402.4,103.7,401.3,103.7z"/>
</g>
<g>
	<linearGradient id="SVGID_10_" gradientUnits="userSpaceOnUse" x1="284.1871" y1="82.1384" x2="322.9798" y2="82.1384">
		<stop  offset="0" style="stop-color:#1B75BC"/>
		<stop  offset="1" style="stop-color:#00446F;stop-opacity:0.95"/>
	</linearGradient>
	<path class="st18" d="M303.9,92.8c-1,0.6-2,0.9-2.8,0.9c-0.9,0-1.4-0.5-1.7-1.2c-0.1-0.4,0.1-0.9,0.5-1.4c0.4-0.5,0.8-1.1,1.4-1.8
		c0.5-0.6,1-1.3,1.4-2.1c0.4-0.8,0.5-1.7,0.3-2.6c-0.2-0.6-0.4-1.2-0.8-1.8c-0.4-0.6-0.7-1.2-0.9-1.8c-0.3-0.6-0.5-1.3-0.6-2.1
		c-0.1-0.8,0-1.7,0.3-2.6c0.5-1.4,1.4-2.7,2.7-3.8c1.3-1.1,2.9-1.7,4.6-1.8c2.8-0.2,4.5,0.6,5.2,2.4c0.8,1.8,0.7,4-0.2,6.5
		c-0.9,2.8-2.1,5.4-3.8,7.8C307.8,89.9,306,91.7,303.9,92.8z"/>
</g>
</svg>
