<svg id="Calque_1" data-name="Calque 1" xmlns="http://www.w3.org/2000/svg" viewBox="0 0 65.34 21.58"><defs><style>.cls-1{fill:#fff;}</style></defs><title>segmentation</title><g id="zOYLlk.tif"><path class="cls-1" d="M39,10.61v1.27l-.11.69a7.91,7.91,0,0,1-6.59,6.49l-.83.11h-.77l-.14,0a7.63,7.63,0,0,1-5-2.26,7.7,7.7,0,0,1-2.2-7.2,7.87,7.87,0,0,1,6.54-6.25l.83-.11h.77l.83.11a7.91,7.91,0,0,1,6.5,6.06C38.92,9.85,39,10.23,39,10.61Zm-8.9-1.14V15h1.64v-.22c0-.92,0-1.84,0-2.76a1.88,1.88,0,0,1,.15-.68.94.94,0,0,1,1-.51.82.82,0,0,1,.75.71,2.6,2.6,0,0,1,.06.53c0,.91,0,1.82,0,2.73,0,.07,0,.15,0,.22h1.7c0-1.29,0-2.57,0-3.85a1.45,1.45,0,0,0,0-.25,1.78,1.78,0,0,0-1.2-1.53,2,2,0,0,0-2.12.38c-.12.11-.22.24-.36.38V9.46ZM29,9.47H27.29V15H29ZM27.11,7.69a1,1,0,1,0,1-1A1,1,0,0,0,27.11,7.69Z"/></g><path class="cls-1" d="M50.88,3.28a7.95,7.95,0,1,0,7.95,7.95A7.95,7.95,0,0,0,50.88,3.28ZM55.64,9c-.22.22-.45.44-.68.66a.18.18,0,0,0-.07.15,5.72,5.72,0,0,1-1.8,4.33,5.15,5.15,0,0,1-2.74,1.38,5.74,5.74,0,0,1-3-.25,5.49,5.49,0,0,1-1-.5l0,0a4,4,0,0,0,2.9-.82,2,2,0,0,1-1.83-1.37,2.09,2.09,0,0,0,.86,0,2,2,0,0,1-1.13-.7,1.93,1.93,0,0,1-.43-1.25c.14.05.28.12.42.15a3.05,3.05,0,0,0,.43.08,2,2,0,0,1-.58-2.65A5.67,5.67,0,0,0,51,10.16c0-.12,0-.23,0-.33a2,2,0,0,1,1.55-2,1.9,1.9,0,0,1,1.77.49.21.21,0,0,0,.22.06,4.08,4.08,0,0,0,1-.4l.09,0a2,2,0,0,1-.82,1.06V9l.53-.12c.17,0,.34-.11.54-.18A2.65,2.65,0,0,1,55.64,9Z"/><g id="bhM9tQ.tif"><path class="cls-1" d="M11.74,3.33h.57l.18,0c.37,0,.75.07,1.12.15a7.84,7.84,0,0,1,6.17,6.37c0,.31.09.61.13.92v.8l0,.21c-.08.45-.12.9-.23,1.34a7.83,7.83,0,0,1-6.28,5.78l-.92.13h-.8l-.21,0A11.61,11.61,0,0,1,10,18.78a7.72,7.72,0,0,1-5.73-6.25c-.07-.34-.09-.69-.13-1v-.6a1.5,1.5,0,0,0,0-.16,6.92,6.92,0,0,1,.38-2A7.74,7.74,0,0,1,10.7,3.46C11,3.39,11.39,3.37,11.74,3.33Zm2.43,4.83V6.59c-.6,0-1.19,0-1.78,0a1.63,1.63,0,0,0-1.53,1.35,3.9,3.9,0,0,0-.07.69c0,.23,0,.46,0,.72H9.88v1.87h.92v4.63h1.86V11.22H14l.17-1.87H12.75a.41.41,0,0,1,0-.07c0-.2,0-.4,0-.6,0-.39.13-.52.52-.52Z"/></g></svg>