<svg id="Calque_1" data-name="Calque 1" xmlns="http://www.w3.org/2000/svg" viewBox="0 0 31.31 26.64"><defs><style>.cls-1{fill:#b4c853;}</style></defs><title>segmentation</title><g id="dfeQPW"><path class="cls-1" d="M10,18.44V9.78c.26-.65.48-.79,1.18-.79h1.29c0-.21,0-.38,0-.55a.51.51,0,0,1,.24-.51h.2a.45.45,0,0,1,.25.49c0,.18,0,.36,0,.55h2.14c0-.18,0-.36,0-.53a.53.53,0,0,1,.21-.52h.25c.38.27.12.7.24,1H18.1c0-.2,0-.39,0-.58a.44.44,0,0,1,.25-.47h.2a.51.51,0,0,1,.24.51c0,.18,0,.36,0,.52l.09,0h1.2c.71,0,.92.14,1.18.79v8.66a1.12,1.12,0,0,1-.8.75H10.79A1.12,1.12,0,0,1,10,18.44ZM18.1,9.7H16a.29.29,0,0,0,0,.06c0,.19,0,.38,0,.58s-.14.4-.35.39-.32-.14-.32-.39,0-.43,0-.64H13.14c0,.22,0,.42,0,.62s-.12.41-.33.42-.35-.15-.36-.42,0-.41,0-.63H11.1c-.37,0-.41,0-.41.42q0,4,0,8c0,.37,0,.41.42.41h9c.38,0,.42,0,.42-.41q0-4,0-8c0-.07,0-.15,0-.2s-.13-.21-.21-.21c-.51,0-1,0-1.56,0,0,.26,0,.48,0,.7a.34.34,0,1,1-.68,0C18.1,10.15,18.1,9.93,18.1,9.7Z"/><path class="cls-1" d="M18.77,15.7v1H17.41v-1Z"/><path class="cls-1" d="M12.47,16.7v-1h1.36v1Z"/><path class="cls-1" d="M16.29,15.7v1H14.95v-1Z"/><path class="cls-1" d="M18.77,13.94v1H17.41v-1Z"/><path class="cls-1" d="M12.48,13.94h1.36v1H12.48Z"/><path class="cls-1" d="M18.77,12.18v1H17.41v-1Z"/><path class="cls-1" d="M13.83,13.18H12.48v-1h1.36Z"/><path class="cls-1" d="M16.29,14.94H14.95v-1h1.34Z"/><path class="cls-1" d="M16.29,13.18H14.95v-1h1.34Z"/></g></svg>