<svg id="Calque_1" data-name="Calque 1" xmlns="http://www.w3.org/2000/svg" viewBox="0 0 31.31 26.64"><defs><style>.cls-1{fill:#b4c853;}</style></defs><title>segmentation</title><g id="LSNxYl"><path class="cls-1" d="M15.58,20.5c-.23,0-.47,0-.7,0s-.47-.14-.51-.44c-.07-.48-.15-.95-.22-1.42,0-.2-.1-.35-.32-.39a.4.4,0,0,1-.16-.06.9.9,0,0,0-1.26.14,8.92,8.92,0,0,1-.86.61.38.38,0,0,1-.56-.05c-.35-.36-.71-.72-1.07-1.07a.4.4,0,0,1,0-.61c.29-.39.57-.81.87-1.2a.49.49,0,0,0,.06-.47,1.23,1.23,0,0,0-1.34-1c-.25,0-.51-.1-.76-.13s-.39-.2-.38-.48c0-.48,0-1,0-1.44A.42.42,0,0,1,8.73,12l1.42-.22a.52.52,0,0,0,.41-.31,1.21,1.21,0,0,0-.22-1.64,5.92,5.92,0,0,1-.47-.66.38.38,0,0,1,0-.56L11,7.5a.37.37,0,0,1,.56,0c.43.31.85.62,1.29.91a.62.62,0,0,0,.37,0c.09,0,.17-.09.26-.11.58-.09.71-.49.74-1,0-.34.1-.67.15-1a.41.41,0,0,1,.48-.39c.49,0,1,0,1.48,0a.38.38,0,0,1,.45.38c.07.51.16,1,.28,1.52a.83.83,0,0,0,.27.34c.05.05.16,0,.23.09a.84.84,0,0,0,1.19-.14c.26-.24.57-.41.85-.63a.4.4,0,0,1,.62,0c.35.36.71.72,1.07,1.07a.38.38,0,0,1,0,.56c-.3.42-.59.85-.89,1.26a.49.49,0,0,0-.06.47,1.16,1.16,0,0,0,1.29,1,5.22,5.22,0,0,1,.8.12.42.42,0,0,1,.43.49c0,.48,0,1,0,1.44a.41.41,0,0,1-.42.49c-.49.07-1,.18-1.45.25-.23,0-.37.11-.4.35a.36.36,0,0,1-.06.16c-.35.46-.18.84.16,1.22s.41.57.62.85a.39.39,0,0,1-.05.59q-.53.51-1,1a.41.41,0,0,1-.62.06l-1.23-.87a.5.5,0,0,0-.47-.06c-.77.17-1,.69-1,1.39,0,.24-.1.48-.12.73s-.21.41-.5.4S15.82,20.5,15.58,20.5Zm.61-13.95c-.36,0-.67,0-1,0s-.25.06-.27.24c-.06.46-.15.93-.21,1.39a.51.51,0,0,1-.4.47,6.61,6.61,0,0,0-1,.42.51.51,0,0,1-.61,0c-.44-.33-.89-.64-1.33-1l-.86.86c.31.44.61.89.93,1.32a.53.53,0,0,1,0,.64,5,5,0,0,0-.42,1,.54.54,0,0,1-.52.43c-.52.07-1,.17-1.56.26V13.8c.52.1,1,.2,1.55.28a.57.57,0,0,1,.53.46,4.82,4.82,0,0,0,.4,1,.52.52,0,0,1,0,.64c-.32.43-.63.87-.91,1.27l.83.9c.47-.33.91-.66,1.38-.94a.73.73,0,0,1,.54,0c.36.11.68.31,1,.41a.55.55,0,0,1,.44.51c.06.45.13.9.23,1.35a.36.36,0,0,0,.25.23c.32,0,.65,0,1,0,.1-.55.2-1.08.28-1.61a.54.54,0,0,1,.42-.49,5,5,0,0,0,1-.4.56.56,0,0,1,.7,0c.43.32.87.62,1.28.9l.89-.84c-.33-.46-.64-.91-1-1.35a.51.51,0,0,1,0-.61,5.41,5.41,0,0,0,.4-1,.56.56,0,0,1,.53-.46c.53-.07,1.05-.18,1.57-.28V12.59l-1.6-.25a.53.53,0,0,1-.49-.41,5.93,5.93,0,0,0-.41-1,.53.53,0,0,1,0-.64c.33-.44.63-.89.91-1.29l-.83-.91c-.44.31-.87.61-1.29.93a.56.56,0,0,1-.7.05,4.44,4.44,0,0,0-.94-.39.56.56,0,0,1-.46-.53C16.4,7.62,16.29,7.1,16.19,6.55Z"/><path class="cls-1" d="M15.6,10.69a2.52,2.52,0,1,1-2.52,2.53A2.51,2.51,0,0,1,15.6,10.69Zm1.91,2.52a1.91,1.91,0,1,0-1.9,1.91A1.92,1.92,0,0,0,17.51,13.21Z"/></g></svg>