<svg id="Calque_1" data-name="Calque 1" xmlns="http://www.w3.org/2000/svg" xmlns:xlink="http://www.w3.org/1999/xlink" viewBox="0 0 50.57 41.99"><defs><style>.cls-1{fill:url(#Dégradé_sans_nom_95);}.cls-2{fill:url(#Dégradé_sans_nom_95-2);}</style><linearGradient id="Dégradé_sans_nom_95" x1="10.04" y1="21.44" x2="38.42" y2="21.44" gradientUnits="userSpaceOnUse"><stop offset="0" stop-color="#3775b5"/><stop offset="1" stop-color="#1e4866" stop-opacity="0.95"/></linearGradient><linearGradient id="Dégradé_sans_nom_95-2" x1="21.57" y1="17.76" x2="27.08" y2="17.76" xlink:href="#Dégradé_sans_nom_95"/></defs><title>segmentation</title><g id="ihbGRS"><path class="cls-1" d="M38.41,21.07A14.19,14.19,0,1,1,23.89,7.2,14.21,14.21,0,0,1,38.41,21.07ZM20,19.75c-1.87-.12-2.08,1-2,2.46.12,1.65.13,3.3.1,5,0,1.34.5,1.88,1.88,1.82,2.93-.13,5.86-.13,8.79-.19a2.4,2.4,0,0,0,1.1-.16c.94-.55.64-8.69-.39-8.85-1.55-.24-1.12-1.26-1.29-2.14A4,4,0,0,0,24.53,14a3.77,3.77,0,0,0-4.1,2.52A13,13,0,0,0,20,19.75Z"/><path class="cls-2" d="M27.08,19.59l-5.5.1c.46-1.36.62-2.61,1.28-3.46a2.4,2.4,0,0,1,2.37-.15C26,16.9,26.37,18.16,27.08,19.59Z"/></g></svg>