<svg id="Calque_1" data-name="Calque 1" xmlns="http://www.w3.org/2000/svg" viewBox="0 0 31.31 26.64"><defs><style>.cls-1{fill:none;stroke:#b4c853;stroke-miterlimit:10;stroke-width:0.75px;}.cls-2{fill:#b4c853;}</style></defs><title>segmentation</title><g id="fQSotC"><path class="cls-1" d="M9.53,10.47v-.22c.19-.29.39-.57.58-.87l1.31-2a3.33,3.33,0,0,0,2,.82,2.23,2.23,0,0,0,2.16-1h.28a1.24,1.24,0,0,0,.81.82,2.75,2.75,0,0,0,3.29-.58L21,9c.27.41.54.81.82,1.22v.22a1.85,1.85,0,0,0-.69,1.85,14.65,14.65,0,0,0,.39,1.61,4.06,4.06,0,0,1,.14,1.89,3.1,3.1,0,0,1-2.68,2.79c-.55.12-1.11.17-1.67.27a1.55,1.55,0,0,0-1.4,1.05H15.6a2,2,0,0,0-1.82-1.17l-1.41-.16a2.63,2.63,0,0,1-2.23-1.68,10.5,10.5,0,0,1-.39-1.3,2.52,2.52,0,0,1,.1-1.47c.14-.41.27-.83.37-1.25A2.19,2.19,0,0,0,9.53,10.47Z"/></g><path class="cls-2" d="M12.26,14.55a6.29,6.29,0,0,1,2.85,2.51.5.5,0,0,0,.93-.25c.12-2.23,1.78-4.5,3.11-6.15.4-.5-.3-1.21-.71-.71-1.51,1.88-3.26,4.33-3.4,6.85l.93-.25a7.18,7.18,0,0,0-3.21-2.87c-.58-.28-1.08.58-.5.86Z"/></svg>