<svg id="Calque_1" data-name="Calque 1" xmlns="http://www.w3.org/2000/svg" viewBox="0 0 31.31 26.64"><defs><style>.cls-1{fill:#b4c853;}</style></defs><title>segmentation</title><g id="SXAda1"><path class="cls-1" d="M15.92,12.51a8,8,0,0,1-3.78-.81,2.09,2.09,0,0,1-1.29-1.92A2.1,2.1,0,0,1,12.1,7.56a8.9,8.9,0,0,1,7.75,0A2.07,2.07,0,0,1,21.1,9.66a2.14,2.14,0,0,1-1.27,2A8.09,8.09,0,0,1,15.92,12.51ZM16,7.06l0,.1a6,6,0,0,0-1.36.1,12.54,12.54,0,0,0-2.64,1c-.71.41-.65,1.2,0,1.71a4.39,4.39,0,0,0,1.2.64,7.57,7.57,0,0,0,4.05.32,8.39,8.39,0,0,0,2.48-.87c.91-.52.86-1.36,0-2a2.85,2.85,0,0,0-.91-.46C17.91,7.43,17,7.26,16,7.06Z"/><path class="cls-1" d="M11.36,17.73c.12.36.26.58.23.77a1.26,1.26,0,0,0,.8,1.38,7.93,7.93,0,0,0,7.31,0c.44-.22.87-.46,1.33-.7a1.78,1.78,0,0,1-1.08,2.14,8.16,8.16,0,0,1-4.44.88A7.4,7.4,0,0,1,12,21.26a2.26,2.26,0,0,1-1-2.88A5.12,5.12,0,0,1,11.36,17.73Z"/><path class="cls-1" d="M11.71,17A11.88,11.88,0,0,0,17,18.18a12.32,12.32,0,0,0,2.68-.51A1.86,1.86,0,0,0,21.25,16a1.82,1.82,0,0,1,.28-.56,2.17,2.17,0,0,1-.51,3,8.74,8.74,0,0,1-2.8,1,8.17,8.17,0,0,1-5.46-.8A1.65,1.65,0,0,1,11.71,17Z"/><path class="cls-1" d="M10.58,9.51a3.09,3.09,0,0,1-.42.57c-.85.73-.89,1.52.11,2a8.13,8.13,0,0,0,3,.87c1.83.1,3.68-.07,5.55-.13a5.49,5.49,0,0,1-1.07.82,9,9,0,0,1-7.56,0,2.19,2.19,0,0,1-1.39-2.42c.08-1,.75-1.49,1.52-1.9Z"/><path class="cls-1" d="M21.12,15.42a5.78,5.78,0,0,1-1.21,1.1,8.72,8.72,0,0,1-7.92,0,1.72,1.72,0,0,1-1-2.08c1.56.79,3.08,1.66,4.87,1.55s3.48,0,5.12-.77Z"/><path class="cls-1" d="M21.28,10.56a2.23,2.23,0,0,1,.21,3.83,7.43,7.43,0,0,1-4.4,1c-.87,0-1.73-.2-2.69-.32,1.95-.53,3.77-1,5.57-1.53a3.9,3.9,0,0,0,1.1-.53c.78-.53.84-1,.32-1.77A2.22,2.22,0,0,1,21.28,10.56Z"/><path class="cls-1" d="M16.11,8.57l.58.37.78.55a6.16,6.16,0,0,1-.82.61,2,2,0,0,1-2.13-.39l0-.19,1.15.19c.05-.25.14-.52-.35-.57a1.14,1.14,0,0,1-.5-.19c-.34-.24-.36-.51,0-.76a2.32,2.32,0,0,1,2.55.3L16.26,8.4Z"/></g></svg>