<svg xmlns="http://www.w3.org/2000/svg" xmlns:xlink="http://www.w3.org/1999/xlink" viewBox="0 0 209.77 216.13"><defs><style>.cls-1{isolation:isolate;}.cls-2{fill:#b4c853;}.cls-3,.cls-4{fill:#f0bcbb;}.cls-4{opacity:0.2;mix-blend-mode:multiply;}.cls-5{fill:#edf6f7;}.cls-6{fill:#eaa1a1;}.cls-7{fill:url(#ÕÓ_È_Ó·_ÁÂ_ËÂÌÚ_11);}.cls-8{fill:#fff;}.cls-9{fill:#3775b5;}.cls-10{fill:#ecacab;}</style><linearGradient id="ÕÓ_È_Ó·_ÁÂ_ËÂÌÚ_11" x1="68.9" y1="103.27" x2="129.11" y2="103.27" gradientUnits="userSpaceOnUse"><stop offset="0" stop-color="#00503f"/><stop offset="1" stop-color="#0a3223"/></linearGradient></defs><title>segmentation</title><g class="cls-1"><g id="Calque_1" data-name="Calque 1"><path class="cls-2" d="M100.79,187S21.57,182,12,148.68s11.59-37.81,18.8-56.45-25.49-29.63-3.6-55S81.4,11.44,95,23.38s29.28-7.3,54.53,3.54S181,59.66,173,76.77s24.75,33.47,28.85,52.86S168.88,195.52,100.79,187Z"/><path class="cls-3" d="M24.89,216.13H68.07L76.83,191a12.88,12.88,0,0,1,6.79-7.24,32.44,32.44,0,0,0,10.78-8.09,74.91,74.91,0,0,0,11.48-17.45l-25.27-.12S82.88,144,70.32,125.21a10.63,10.63,0,0,1-1.75-6.83l1.19-13.69s8.54-9.54,3.3-21.37c0,0-5-6.93-7-4.4,0,0-15.13,36-16.51,41.38s-3.21,8.72-1.38,25.56a102,102,0,0,1,.65,11.23A39.85,39.85,0,0,1,45,174Z"/><path class="cls-4" d="M70.7,176.76c-3.79-4.2-9-3.54-14.57-5.46s-7.3-15.74-7.3-15.74h0c0,.52,0,1,0,1.52A39.85,39.85,0,0,1,45,174L24.89,216.13H68.07L76.83,191a12.88,12.88,0,0,1,6.79-7.24,31.74,31.74,0,0,0,9.06-6.28C81.44,182.22,74.49,181,70.7,176.76Z"/><path class="cls-5" d="M159.95,82.52a1.41,1.41,0,0,0-1.73-1,2.07,2.07,0,0,0-2.49-1.1,2.55,2.55,0,0,0-4.59.45,1.75,1.75,0,0,0-2.6,1.53c0,.06,0,.11,0,.17Z"/><path class="cls-5" d="M143.49,41.27A3.68,3.68,0,0,0,139,38.54a5.41,5.41,0,0,0-6.51-2.87,6.67,6.67,0,0,0-12,1.16,4.57,4.57,0,0,0-6.8,4c0,.15,0,.3,0,.44Z"/><path class="cls-5" d="M62.75,69.31A3.08,3.08,0,0,0,59,67a4.53,4.53,0,0,0-5.45-2.41,5.58,5.58,0,0,0-10,1,3.83,3.83,0,0,0-5.69,3.34c0,.13,0,.25,0,.37Z"/><path class="cls-6" d="M128.68,54.89s8.64-5.78,10.61-2-11.22,17.29-11.22,17.29Z"/><path class="cls-6" d="M128.68,80.08s8.64-5.78,10.61-2S128.07,95.4,128.07,95.4Z"/><path class="cls-6" d="M128.68,97.24s8.64-5.78,10.61-2-11.22,17.29-11.22,17.29Z"/><path class="cls-7" d="M122.71,48.41H75.29a6.39,6.39,0,0,0-6.39,6.39v96.92a6.4,6.4,0,0,0,6.39,6.39h47.42a6.39,6.39,0,0,0,6.39-6.39V54.81A6.4,6.4,0,0,0,122.71,48.41Z"/><path class="cls-4" d="M73.22,129.9s-8.58,21-7.75,25,6,9.28,18.81,7.51a196.17,196.17,0,0,0,21.6-4.14s.53-28.34,0-29.77-23.5-11.64-24.4-11.64S73.22,129.9,73.22,129.9Z"/><rect class="cls-8" x="72" y="57.13" width="54.01" height="92.28"/><path class="cls-2" d="M107.15,80.29a12.08,12.08,0,0,1-.31,1.55,2.14,2.14,0,0,0,.88,2.77c.52.36.91.61,1.53.35.4-.17.87-.2,1.26-.38.89-.41,1.43-.17,2,.65s.63,1.23,0,1.81c-1.45,1.26-1.35,2.69-.44,4.17a2.88,2.88,0,0,0,.91.75,1.75,1.75,0,0,0,.59.15c2.16.47,2.16.47,2.4,2.75a25.86,25.86,0,0,0-2.39,1.24,2.06,2.06,0,0,0-.69,1.06c-.48,1.48.26,2.39,1.51,3.07.39.22,1,.6,1,.91a6.15,6.15,0,0,1-.56,1.93c0,.11-.26.19-.41.22a4.73,4.73,0,0,1-.71,0c-2.1.06-2.1.06-3.37,1.71L107.48,103a12.9,12.9,0,0,0,1.77-6.82c-.23-5.43-2.8-9.38-7.77-11.48a12.73,12.73,0,0,0-17.06,15.48A12.19,12.19,0,0,0,94.57,109a16.63,16.63,0,0,0,4.14,0,2.08,2.08,0,0,1,1.68.37c1.26,1,2.58,2,3.87,3,.9.69.73,1.55-.27,2.05s-1.68.48-2.25-.53c-.18-.32-.53-.54-.72-.85-.38-.62-.9-.56-1.55-.58-1.73,0-2.48.89-2.95,2.4a1.84,1.84,0,0,1-2.57,1,1,1,0,0,1-.36-.54,5.81,5.81,0,0,1-.33-1.27,2.07,2.07,0,0,0-1.88-2.07c-.64-.12-1.13-.25-1.6.3-.29.33-.7.55-1,.88-.66.8-1.27.8-2.15.23A1.28,1.28,0,0,1,86,111.6c.57-2.51.43-2.86-1.58-4.37a1.23,1.23,0,0,0-.83-.13,5.86,5.86,0,0,0-1.47.36c-1.09.47-1.72.09-2.23-.93-.28-.56-.41-.94.09-1.41a9,9,0,0,0,.77-.94c1-1.17,1-1.77.27-3a1,1,0,0,0-.55-.37c-.46-.12-.93-.18-1.39-.27-1.53-.29-1.48-.3-1.77-1.86a.87.87,0,0,1,.62-1.15c.28-.11.53-.32.82-.4a2.21,2.21,0,0,0,1.71-2.55c0-.59-.09-1-.64-1.34-.35-.2-.64-.52-1-.7-1-.48-1.12-1.1-.73-2.12.28-.74.59-1.06,1.35-1a4.24,4.24,0,0,1,.51,0c1.81.43,2.5-.81,3.11-2.11a1.09,1.09,0,0,0-.09-.81c-.41-.85-.87-1.67-1.3-2.49,1.47-1.81,1.5-1.86,3.49-.89a2.29,2.29,0,0,0,2.35-.16,2.73,2.73,0,0,0,1.64-3.32c-.21-1.12.51-1.31,1.29-1.63a1.15,1.15,0,0,1,1.64.61,7.18,7.18,0,0,0,.56.72,2,2,0,0,0,2.65.82,1,1,0,0,0,.46-.47c.21-.39.36-.8.54-1.2.69-1.56.9-1.67,2.57-1.29a.91.91,0,0,1,.5.49,3.24,3.24,0,0,1,.3,1.07A2.25,2.25,0,0,0,101.69,81c.71.15,1.22.17,1.68-.39a2,2,0,0,1,.23-.2C105.27,78.93,105.27,78.93,107.15,80.29Z"/><path class="cls-2" d="M85.74,95.86c1.34,1,2.64,2,4,3A2.72,2.72,0,0,0,93,99a2.32,2.32,0,0,0,1.18-2.68,5,5,0,0,0-1.42-2.11c-1.1-1-2.34-1.82-3.65-2.82a5.83,5.83,0,0,1,4.68-.31,6,6,0,0,1,4.08,5.83,1.54,1.54,0,0,0,.71,1.42q5.6,4.2,11.15,8.46a1.92,1.92,0,0,0,1.91.39A6,6,0,0,1,119,114.1c-1.3-1-2.51-2-3.84-2.83a4.46,4.46,0,0,0-2.44-.65,2.32,2.32,0,0,0-2.08,1.94,2.72,2.72,0,0,0,1,3c1.26,1,2.57,2,4,3.06a6,6,0,0,1-8.7-5.44,1.73,1.73,0,0,0-.8-1.58q-5.49-4.09-10.91-8.28A2.33,2.33,0,0,0,93,102.8,5.93,5.93,0,0,1,85.74,95.86Zm24.48,14L95.57,98.76l-1,1.33,14.64,11.11Z"/><path class="cls-8" d="M110,54.23h-22a.58.58,0,0,1-.58-.58h0a.58.58,0,0,1,.58-.58h22a.58.58,0,0,1,.58.58h0A.58.58,0,0,1,110,54.23Z"/><path class="cls-3" d="M67.82,112.94a4,4,0,0,0,1.06,1.81l.88-10.07s6.28-7,4.76-16.48a14.14,14.14,0,0,0-4.6-8.39c-1.41-1.24-3-2.06-3.86-.9,0,0-7.11,16.94-12,29.31Z"/><rect class="cls-9" x="72" y="143.95" width="54.01" height="5.46"/><rect class="cls-9" x="72" y="57.13" width="54.01" height="4.9"/><path class="cls-6" d="M67.34,88.86c2-.9,3-6,3.36-8.32-1.58-1.59-3.56-3-4.64-1.63,0,0-1.57,3.73-3.74,9C63.81,88.7,65.87,89.54,67.34,88.86Z"/><path class="cls-10" d="M116.87,117.9s-7.29.61-7.55,2.55.31,5.36,7.19,6h7.13s-2.13-5.92-2-6.12S116.87,117.9,116.87,117.9Z"/><path class="cls-3" d="M105.17,146.82a2,2,0,0,0-.77,2.74c3.36,5.79,16.71,28.8,17.91,30.67,1.38,2.14,4.92,6.53,15.92,9.79,18.15,5.38,24.86,26.1,24.86,26.1h33s-15.75-28.86-22.49-62.22c0,0-5.2-27.7-15-26.78,0,0-6-6.27-11.78-5.05,0,0-11-6.58-17.29-6.58L114.43,97.68a4.36,4.36,0,0,0-6-.71,2.86,2.86,0,0,0-1.16,1.84c-.46,2.91,3.37,10.25,9.49,19.13s21.27,37,14.69,49.43a66.57,66.57,0,0,1-12.55-13.16C114.07,147.42,108.34,145.14,105.17,146.82Z"/><path class="cls-6" d="M129.55,115.5A62.74,62.74,0,0,1,135.2,121a68.64,68.64,0,0,1,5,6.14,48.87,48.87,0,0,1,4.11,6.77,25.51,25.51,0,0,1,2.49,7.5h0A29.06,29.06,0,0,0,144,134.1a55.11,55.11,0,0,0-4.17-6.67c-1.52-2.14-3.17-4.18-4.89-6.17s-3.65-4-5.4-5.72Z"/><path class="cls-6" d="M146.69,122a17,17,0,0,1,4.36,3.31,21.38,21.38,0,0,1,5.37,9.51,20.83,20.83,0,0,1,.69,5.43h0a26.72,26.72,0,0,0-1-5.33,24.18,24.18,0,0,0-5.29-9.37,20.36,20.36,0,0,0-4.12-3.51Z"/><path class="cls-6" d="M158.46,127a15.12,15.12,0,0,1,3.6,4.31,19,19,0,0,1,2.54,9h0a26,26,0,0,0-2.87-8.76,20.55,20.55,0,0,0-3.24-4.49Z"/><path class="cls-6" d="M112.12,153.94c.31-1.55-1.5-4-3.14-5.86a3.81,3.81,0,0,0-4.06-1.11,2,2,0,0,0-.52,2.58l4.44,7.65C110.27,156.48,111.84,155.38,112.12,153.94Z"/><path class="cls-6" d="M113.57,104.67c.87-.17,4.82-1.49,4.58-2.21h0l-3.9-4.6a4.44,4.44,0,0,0-3-1.55h-.22A2,2,0,0,0,109,97.86c-.28,1.4,2,4.79,3.05,6.2A1.54,1.54,0,0,0,113.57,104.67Z"/><path class="cls-4" d="M175.06,220h21s-13-28.33-18.56-49.25c-2.46,15.4-16,14.51-21.39,15.37-6.19,1-30.24-4-33.61-5.61,1.5,2.29,5,7,15.72,9.49C149.39,192.63,175.06,220,175.06,220Z"/><path class="cls-4" d="M118.62,120.74c6.75,10.85,18.86,35.77,12.87,46.64l4,3.93s10.05-11.13-5.94-35.69A163.69,163.69,0,0,0,118.62,120.74Z"/><path class="cls-5" d="M139.49,72.61a2.91,2.91,0,0,1,3.57-2.16,4.29,4.29,0,0,1,5.15-2.28,5.28,5.28,0,0,1,9.48.92,3.62,3.62,0,0,1,5.38,3.16c0,.12,0,.24,0,.35Z"/><path class="cls-5" d="M61.89,32.55A2.08,2.08,0,0,1,64.45,31a3.07,3.07,0,0,1,3.69-1.63,3.78,3.78,0,0,1,6.79.66,2.59,2.59,0,0,1,3.85,2.26c0,.08,0,.17,0,.25Z"/><path class="cls-5" d="M151.13,109.1s-.35,3.5-3.12,3.74c2.76.24,3.12,3.74,3.12,3.74s.35-3.5,3.12-3.74C151.48,112.6,151.13,109.1,151.13,109.1Z"/><path class="cls-5" d="M146.27,53.71S146,56.22,144,56.39c2,.17,2.24,2.68,2.24,2.68s.25-2.51,2.24-2.68C146.52,56.22,146.27,53.71,146.27,53.71Z"/><path class="cls-5" d="M60.43,40.25s-.16,1.58-1.41,1.69c1.25.11,1.41,1.69,1.41,1.69s.16-1.58,1.41-1.69C60.59,41.83,60.43,40.25,60.43,40.25Z"/><path class="cls-5" d="M50.29,83.25s-.35,3.5-3.12,3.74c2.76.24,3.12,3.74,3.12,3.74s.35-3.5,3.12-3.74C50.64,86.75,50.29,83.25,50.29,83.25Z"/><path class="cls-5" d="M158.43,99.43s-.23,2.31-2.06,2.47c1.83.16,2.06,2.47,2.06,2.47s.23-2.31,2.06-2.47C158.66,101.74,158.43,99.43,158.43,99.43Z"/><path class="cls-5" d="M152.6,47s-.13,1.26-1.12,1.35c1,.09,1.12,1.35,1.12,1.35s.13-1.26,1.12-1.35C152.73,48.27,152.6,47,152.6,47Z"/><path class="cls-5" d="M56.1,75.07s-.23,2.31-2.06,2.47C55.86,77.7,56.1,80,56.1,80s.23-2.31,2.06-2.47C56.33,77.38,56.1,75.07,56.1,75.07Z"/><path class="cls-8" d="M69.33,36.91s-.12,1.21-1.08,1.29c1,.08,1.08,1.29,1.08,1.29s.12-1.21,1.08-1.29C69.45,38.12,69.33,36.91,69.33,36.91Z"/><path class="cls-5" d="M147.76,92.48s-.1,1-.92,1.11c.82.07.92,1.11.92,1.11s.11-1,.92-1.11C147.86,93.51,147.76,92.48,147.76,92.48Z"/><path class="cls-8" d="M52.74,96.91s-.11,1-.92,1.11c.82.07.92,1.11.92,1.11s.1-1,.92-1.11C52.84,97.95,52.74,96.91,52.74,96.91Z"/><path class="cls-5" d="M62.33,48.73s-.21,2-1.82,2.19c1.61.14,1.82,2.19,1.82,2.19s.21-2,1.82-2.19C62.54,50.77,62.33,48.73,62.33,48.73Z"/></g></g></svg>