<svg id="Calque_1" data-name="Calque 1" xmlns="http://www.w3.org/2000/svg" xmlns:xlink="http://www.w3.org/1999/xlink" viewBox="0 0 116.7 124.98"><defs><style>.cls-1{fill:#d1d3d4;}.cls-2{clip-path:url(#clip-path);}.cls-3{fill:#fff;}.cls-4{fill:#e6e7e8;}.cls-5{fill:#112e3f;}</style><clipPath id="clip-path"><polygon class="cls-1" points="39.06 76.66 103.44 21.4 44.67 61.81 39.06 76.66"/></clipPath></defs><title>segmentation</title><polygon class="cls-1" points="39.06 76.66 103.44 21.4 44.67 61.81 39.06 76.66"/><g class="cls-2"><rect class="cls-1" x="39.06" y="21.4" width="64.38" height="55.25"/><path class="cls-1" d="M38.7,69.5V41.57H36.54A72.88,72.88,0,0,1,55.18,18.75V21H103.8V77H38.7Z"/><path class="cls-1" d="M38.7,69.5V41.78H37.15a72.33,72.33,0,0,1,18.5-22.64V21H103.8V77H38.7Z"/><path class="cls-1" d="M38.7,69.5V42h-.95A71.77,71.77,0,0,1,56.12,19.53V21H103.8V77H38.7Z"/><path class="cls-1" d="M38.7,69.5V42.2h-.33A71.22,71.22,0,0,1,56.59,19.91V21H103.8V77H38.7Z"/><path class="cls-1" d="M38.7,69.5V45.58H37.47Q38.18,44,39,42.42A70.66,70.66,0,0,1,57.06,20.3V21H103.8V77H38.7Z"/><path class="cls-1" d="M38.7,69.5V49H36.78a61.31,61.31,0,0,1,2.81-6.34A70.1,70.1,0,0,1,57.53,20.69V21H103.8V77H38.7Z"/><path class="cls-1" d="M38.7,69.5V49.14H37.42a60.82,60.82,0,0,1,2.79-6.29A69.55,69.55,0,0,1,58,21.08q1.41-1.16,2.88-2.27V21H103.8V77H38.7Z"/><path class="cls-1" d="M38.7,69.5V49.3H38a60.33,60.33,0,0,1,2.77-6.24A69,69,0,0,1,58.47,21.46q1.4-1.15,2.86-2.25V21H103.8V77H38.7Z"/><path class="cls-1" d="M38.7,69.5V55.92h-2a58.68,58.68,0,0,1,4.76-12.65,68.43,68.43,0,0,1,17.5-21.42q1.39-1.14,2.84-2.23V21h42V77H38.7Z"/><path class="cls-1" d="M38.7,69.5V56H37.32A58.2,58.2,0,0,1,42,43.48,67.88,67.88,0,0,1,59.41,22.24Q60.78,21.1,62.22,20v1H103.8V77H38.7Z"/><path class="cls-1" d="M36.34,69.5c0-18.31,9-34.88,23.53-46.88q1.36-1.12,2.79-2.2V21H103.8V77H38.7V69.5Z"/><path class="cls-1" d="M37,69.5C37,51.35,45.92,34.91,60.34,23Q63,20.78,66,18.77V21h37.8V77H38.7V69.5Z"/><path class="cls-1" d="M37.67,69.5c0-18,8.85-34.3,23.15-46.1q2.68-2.21,5.61-4.21V21H103.8V77H38.7V69.5Z"/><path class="cls-1" d="M38.33,69.5c0-17.85,8.77-34,23-45.71q2.66-2.19,5.56-4.17V21h37V77H39.24v2.34q-.3-1.61-.5-3.24A54.08,54.08,0,0,1,38.33,69.5Z"/><path class="cls-1" d="M39,69.5c0-17.7,8.7-33.73,22.76-45.33Q64.39,22,67.27,20v1H103.8V77H39.89v2.25q-.29-1.59-.49-3.21A53.61,53.61,0,0,1,39,69.5Z"/><path class="cls-1" d="M39.66,69.5c0-17.55,8.62-33.44,22.56-44.94q2.61-2.16,5.47-4.1V21H103.8V77H40.55v2.17q-.29-1.58-.49-3.18A53.17,53.17,0,0,1,39.66,69.5Z"/><path class="cls-1" d="M40.32,69.5c0-17.4,8.55-33.15,22.37-44.55q2.59-2.14,5.42-4.07V21H103.8V77H41.2V79.1q-.29-1.56-.49-3.15A52.7,52.7,0,0,1,40.32,69.5Z"/><path class="cls-1" d="M41,69.5c0-17.25,8.47-32.86,22.17-44.17q2.57-2.12,5.38-4,1.4-1,2.86-1.85V21h32.4V77H41.86v2q-.29-1.55-.48-3.13A52.25,52.25,0,0,1,41,69.5Z"/><path class="cls-1" d="M41.65,69.5c0-17.1,8.4-32.57,22-43.78q2.55-2.1,5.33-4,1.39-.95,2.83-1.84V21h32V77H42.52v1.92q-.28-1.54-.48-3.1A51.79,51.79,0,0,1,41.65,69.5Z"/><path class="cls-1" d="M42.32,69.5c0-16.95,8.32-32.29,21.78-43.39a73.58,73.58,0,0,1,11-7.49V21H103.8V77H43.17v1.84q-.28-1.52-.47-3.07A51.33,51.33,0,0,1,42.32,69.5Z"/><path class="cls-1" d="M43,69.5c0-16.79,8.25-32,21.59-43a72.92,72.92,0,0,1,10.91-7.43v2H103.8V77h-60v1.75q-.28-1.51-.47-3A50.87,50.87,0,0,1,43,69.5Z"/><path class="cls-1" d="M43.64,69.5c0-16.64,8.18-31.71,21.4-42.62a72.26,72.26,0,0,1,10.81-7.36V21h28V77H44.49v1.67q-.28-1.5-.46-3A50.41,50.41,0,0,1,43.64,69.5Z"/><path class="cls-1" d="M44.31,69.5c0-16.49,8.1-31.42,21.2-42.23A71.61,71.61,0,0,1,76.22,20V21H103.8V77H45.14V78.6q-.27-1.48-.46-3A50,50,0,0,1,44.31,69.5Z"/><path class="cls-1" d="M45,69.5c0-16.34,8-31.13,21-41.84a71,71,0,0,1,10.61-7.23V21H103.8V77h-58v1.5q-.27-1.47-.46-3A49.49,49.49,0,0,1,45,69.5Z"/><path class="cls-1" d="M45.64,69.5c0-16.19,8-30.84,20.81-41.45A70.3,70.3,0,0,1,77,20.89V21H103.8V77H46.46v1.42Q46.19,77,46,75.5A49,49,0,0,1,45.64,69.5Z"/><path class="cls-1" d="M46.3,69.5c0-16,7.88-30.56,20.62-41.07a69.64,69.64,0,0,1,10.42-7.09q1.4-.78,2.86-1.51V21H103.8V77H47.11v1.33q-.27-1.44-.45-2.91A48.58,48.58,0,0,1,46.3,69.5Z"/><path class="cls-1" d="M47,69.5c0-15.89,7.8-30.27,20.42-40.68a69,69,0,0,1,10.32-7q2.78-1.55,5.75-2.88V21H103.8V77h-56v1.25q-.26-1.43-.44-2.88A48.12,48.12,0,0,1,47,69.5Z"/><path class="cls-1" d="M47.63,69.5c0-15.73,7.73-30,20.23-40.29a68.32,68.32,0,0,1,10.22-7q2.76-1.54,5.69-2.85V21h20V77H48.43v1.17q-.26-1.41-.44-2.85A47.67,47.67,0,0,1,47.63,69.5Z"/><path class="cls-1" d="M48.29,69.5c0-15.58,7.66-29.69,20-39.9a67.66,67.66,0,0,1,10.12-6.89q2.73-1.52,5.64-2.83V21H103.8V77H49.08V78.1q-.26-1.4-.43-2.82A47.2,47.2,0,0,1,48.29,69.5Z"/><path class="cls-1" d="M49,69.5C49,54.07,56.54,40.1,68.8,30a67,67,0,0,1,10-6.82q2.7-1.51,5.58-2.8V21h19.4V77H49.74v1q-.26-1.39-.43-2.8A46.75,46.75,0,0,1,49,69.5Z"/><path class="cls-1" d="M49.62,69.5c0-15.28,7.51-29.11,19.64-39.13a66.35,66.35,0,0,1,9.93-6.76q2.68-1.49,5.53-2.77V21H103.8V77H50.39v.92q-.25-1.37-.43-2.77A46.29,46.29,0,0,1,49.62,69.5Z"/><path class="cls-1" d="M50.29,69.5c0-15.13,7.43-28.83,19.45-38.74A68.73,68.73,0,0,1,90.84,19v2h13V77H51.05v.83q-.25-1.36-.42-2.74A45.82,45.82,0,0,1,50.29,69.5Z"/><path class="cls-1" d="M50.95,69.5c0-15,7.36-28.54,19.26-38.35A68,68,0,0,1,91.1,19.52V21h12.7V77H51.71v.75q-.25-1.35-.42-2.71A45.37,45.37,0,0,1,50.95,69.5Z"/><path class="cls-1" d="M51.61,69.5c0-14.83,7.28-28.25,19.06-38A67.36,67.36,0,0,1,91.36,20v1H103.8V77H52.36v.67q-.25-1.33-.41-2.69A44.91,44.91,0,0,1,51.61,69.5Z"/><path class="cls-1" d="M52.28,69.5c0-14.68,7.21-28,18.87-37.58A66.67,66.67,0,0,1,91.62,20.53V21H103.8V77H53v.58q-.24-1.32-.41-2.66A44.46,44.46,0,0,1,52.28,69.5Z"/><path class="cls-1" d="M52.94,69.5c0-14.52,7.14-27.67,18.67-37.19A66,66,0,0,1,91.88,21H103.8V77H53.68v.5q-.24-1.31-.41-2.63A44,44,0,0,1,52.94,69.5Z"/><path class="cls-1" d="M53.61,69.5c0-14.37,7.06-27.39,18.48-36.8A65.29,65.29,0,0,1,92.14,21.54q2.83-1,5.8-1.75V21h5.87V77H54.33v.42q-.24-1.29-.4-2.6A43.54,43.54,0,0,1,53.61,69.5Z"/><path class="cls-1" d="M54.27,69.5c0-14.22,7-27.1,18.28-36.42A64.61,64.61,0,0,1,92.4,22a71.89,71.89,0,0,1,11.72-3l-.31,2V77H55v.33q-.24-1.28-.4-2.58A43.08,43.08,0,0,1,54.27,69.5Z"/><path class="cls-1" d="M54.93,69.5c0-14.07,6.91-26.81,18.09-36A63.92,63.92,0,0,1,92.65,22.55a71.13,71.13,0,0,1,11.59-3L103.8,21V77H55.65v.25q-.23-1.27-.39-2.55A42.62,42.62,0,0,1,54.93,69.5Z"/><path class="cls-1" d="M55.6,69.5c0-13.92,6.84-26.52,17.89-35.64a63.23,63.23,0,0,1,19.42-10.8,70.36,70.36,0,0,1,11.47-2.94l-.58.92V77H56.3v.17q-.23-1.25-.39-2.52A42.16,42.16,0,0,1,55.6,69.5Z"/><path class="cls-1" d="M56.26,69.5C56.26,55.73,63,43.27,74,34.25A62.55,62.55,0,0,1,93.17,23.56a69.6,69.6,0,0,1,11.34-2.91l-.71.39V77H57v.08q-.23-1.24-.38-2.5A41.7,41.7,0,0,1,56.26,69.5Z"/><path class="cls-1" d="M56.93,69.5c0-13.62,6.69-25.94,17.51-34.87a61.86,61.86,0,0,1,19-10.57,68.83,68.83,0,0,1,11.22-2.87h-.85V77H58.14v2.43A41.2,41.2,0,0,1,56.93,69.5Z"/><path class="cls-1" d="M57.59,69.5C57.59,56,64.21,43.85,74.9,35A61.17,61.17,0,0,1,93.69,24.57a68.07,68.07,0,0,1,11.09-2.84h-1V77h-45v2.32A40.75,40.75,0,0,1,57.59,69.5Z"/><path class="cls-1" d="M58.25,69.5c0-13.31,6.54-25.37,17.12-34.09A60.48,60.48,0,0,1,93.95,25.08a67.3,67.3,0,0,1,11-2.81H103.8V77H59.44v2.21A40.29,40.29,0,0,1,58.25,69.5Z"/><path class="cls-1" d="M58.92,69.5c0-13.16,6.47-25.08,16.92-33.71A59.8,59.8,0,0,1,94.2,25.58,66.54,66.54,0,0,1,105,22.8H103.8V77H60.09v2.1A39.83,39.83,0,0,1,58.92,69.5Z"/><path class="cls-1" d="M59.58,69.5c0-13,6.39-24.79,16.73-33.32a59.11,59.11,0,0,1,18.15-10.1,65.77,65.77,0,0,1,10.72-2.75H103.8V77H60.74v2A39.37,39.37,0,0,1,59.58,69.5Z"/><path class="cls-1" d="M60.25,69.5c0-12.86,6.32-24.5,16.53-32.93a58.42,58.42,0,0,1,17.94-10,65,65,0,0,1,10.6-2.71H103.8V77H61.39v1.88A38.92,38.92,0,0,1,60.25,69.5Z"/><path class="cls-1" d="M60.91,69.5c0-12.71,6.24-24.21,16.34-32.54A57.73,57.73,0,0,1,95,27.1a64.24,64.24,0,0,1,10.47-2.68H103.8V77H62v1.77A38.46,38.46,0,0,1,60.91,69.5Z"/><path class="cls-1" d="M61.57,69.5c0-12.56,6.17-23.93,16.14-32.16A57,57,0,0,1,95.24,27.6,63.48,63.48,0,0,1,105.58,25H103.8V77H62.69v1.65A38,38,0,0,1,61.57,69.5Z"/><path class="cls-1" d="M62.24,69.5c0-12.41,6.09-23.64,15.95-31.77A56.36,56.36,0,0,1,95.5,28.11a62.72,62.72,0,0,1,10.22-2.62H103.8V77H63.35v1.54A37.54,37.54,0,0,1,62.24,69.5Z"/><path class="cls-1" d="M62.9,69.5c0-12.25,6-23.35,15.75-31.38a55.67,55.67,0,0,1,17.1-9.51A62,62,0,0,1,105.85,26H103.8V77H64v1.43A37.08,37.08,0,0,1,62.9,69.5Z"/><path class="cls-1" d="M63.57,69.5c0-12.1,5.95-23.06,15.56-31A55,55,0,0,1,96,29.12a61.19,61.19,0,0,1,10-2.55H103.8V77H64.65v1.32A36.63,36.63,0,0,1,63.57,69.5Z"/><path class="cls-1" d="M64.23,69.5c0-12,5.87-22.77,15.37-30.61a54.3,54.3,0,0,1,16.68-9.28,60.42,60.42,0,0,1,9.85-2.52H103.8V77H65.3v1.21A36.17,36.17,0,0,1,64.23,69.5Z"/><path class="cls-1" d="M64.9,69.5c0-11.8,5.8-22.48,15.17-30.22a53.61,53.61,0,0,1,16.46-9.16,59.66,59.66,0,0,1,9.72-2.49H103.8V77H65.95v1.1A35.71,35.71,0,0,1,64.9,69.5Z"/><path class="cls-1" d="M65.56,69.5c0-11.65,5.72-22.2,15-29.83a52.92,52.92,0,0,1,16.25-9q2.29-.8,4.7-1.42,1.2-.31,2.43-.57h-.11V77H66.6v1A35.25,35.25,0,0,1,65.56,69.5Z"/><path class="cls-1" d="M66.22,69.5C66.22,58,71.87,47.59,81,40.06a52.24,52.24,0,0,1,16-8.92q2.26-.79,4.64-1.4,1.19-.3,2.39-.56h-.28V77H67.25v.88A34.79,34.79,0,0,1,66.22,69.5Z"/><path class="cls-1" d="M66.89,69.5c0-11.35,5.57-21.62,14.59-29.06a51.55,51.55,0,0,1,15.83-8.81q2.23-.78,4.58-1.38,1.17-.3,2.36-.55h-.44V77H67.9v.77A34.34,34.34,0,0,1,66.89,69.5Z"/><path class="cls-1" d="M67.55,69.5c0-11.2,5.5-21.33,14.39-28.67a50.86,50.86,0,0,1,15.62-8.69q2.2-.77,4.51-1.36,1.15-.3,2.33-.55h-.61V77H68.55v.66A33.88,33.88,0,0,1,67.55,69.5Z"/><path class="cls-1" d="M68.22,69.5c0-11,5.43-21,14.2-28.28a50.17,50.17,0,0,1,15.41-8.57q2.17-.76,4.45-1.34,1.14-.29,2.3-.54h-.78V77H69.2v.55A33.42,33.42,0,0,1,68.22,69.5Z"/><path class="cls-1" d="M68.88,69.5c0-10.89,5.35-20.76,14-27.89a49.49,49.49,0,0,1,15.2-8.45q2.15-.75,4.39-1.33,1.12-.29,2.27-.53h-.94V77h-34v.44A33,33,0,0,1,68.88,69.5Z"/><path class="cls-1" d="M69.54,69.5C69.54,58.76,74.82,49,83.35,42a48.8,48.8,0,0,1,15-8.34q2.12-.74,4.33-1.31,1.11-.28,2.24-.52H103.8V77H70.5v.33A32.51,32.51,0,0,1,69.54,69.5Z"/><path class="cls-1" d="M70.21,69.5c0-10.59,5.2-20.18,13.62-27.12A48.11,48.11,0,0,1,98.6,34.16q2.09-.73,4.27-1.29,1.09-.28,2.21-.52H103.8V77H71.15v.22A32,32,0,0,1,70.21,69.5Z"/><path class="cls-1" d="M70.87,69.5c0-10.44,5.13-19.89,13.42-26.73a47.42,47.42,0,0,1,14.56-8.1q2.06-.72,4.21-1.27,1.08-.28,2.17-.51H103.8V77h-32v.11A31.59,31.59,0,0,1,70.87,69.5Z"/><path class="cls-1" d="M71.54,69.5c0-10.29,5.05-19.6,13.23-26.34a46.74,46.74,0,0,1,14.35-8q2-.71,4.15-1.25,1.06-.27,2.14-.5H103.8V77H73v1.8q-.28-.89-.5-1.8A31.13,31.13,0,0,1,71.54,69.5Z"/><path class="cls-1" d="M72.2,69.5c0-10.14,5-19.31,13-26a46.05,46.05,0,0,1,14.14-7.87q2-.7,4.09-1.23,1-.27,2.11-.49H103.8V77H73.6v1.66q-.27-.88-.5-1.78A30.67,30.67,0,0,1,72.2,69.5Z"/><path class="cls-1" d="M72.86,69.5c0-10,4.91-19,12.84-25.57a45.36,45.36,0,0,1,13.93-7.75q2-.69,4-1.22,1-.26,2.08-.49H103.8V77H74.24v1.53q-.27-.87-.49-1.75A30.22,30.22,0,0,1,72.86,69.5Z"/><path class="cls-1" d="M73.53,69.5c0-9.83,4.83-18.74,12.64-25.18a44.68,44.68,0,0,1,13.72-7.63q1.94-.68,4-1.2h-.06V77H74.89V78.4q-.27-.85-.48-1.72A29.76,29.76,0,0,1,73.53,69.5Z"/><path class="cls-1" d="M74.19,69.5c0-9.68,4.76-18.45,12.45-24.79a44,44,0,0,1,13.51-7.51q1.91-.67,3.9-1.18h-.25V77H75.53v1.25q-.26-.84-.47-1.7A29.3,29.3,0,0,1,74.19,69.5Z"/><path class="cls-1" d="M74.86,69.5c0-9.53,4.68-18.16,12.25-24.41a43.3,43.3,0,0,1,13.3-7.4q1.88-.65,3.84-1.16h-.45V77H76.17v1.12q-.26-.83-.47-1.67A28.84,28.84,0,0,1,74.86,69.5Z"/><path class="cls-1" d="M75.52,69.5c0-9.38,4.61-17.87,12.06-24a42.61,42.61,0,0,1,13.09-7.28q1.85-.64,3.78-1.14h-.65V77h-27v1q-.25-.81-.46-1.64A28.39,28.39,0,0,1,75.52,69.5Z"/><path class="cls-1" d="M76.18,69.5c0-9.23,4.53-17.58,11.86-23.63a41.93,41.93,0,0,1,12.88-7.16q1.82-.63,3.72-1.12h-.85V77H78v2.43a28.58,28.58,0,0,1-1-3.2A27.93,27.93,0,0,1,76.18,69.5Z"/><path class="cls-1" d="M76.85,69.5c0-9.08,4.46-17.3,11.67-23.24a41.24,41.24,0,0,1,12.66-7q1.79-.62,3.66-1.11h-1V77H78.64v2.27a28.12,28.12,0,0,1-1-3.15A27.47,27.47,0,0,1,76.85,69.5Z"/><path class="cls-1" d="M77.51,69.5c0-8.93,4.39-17,11.48-22.86a40.55,40.55,0,0,1,12.45-6.93q1.76-.61,3.6-1.09H103.8V77H79.27v2.1a27.64,27.64,0,0,1-1-3.1A27,27,0,0,1,77.51,69.5Z"/><path class="cls-1" d="M78.18,69.5c0-8.78,4.31-16.72,11.28-22.47a39.86,39.86,0,0,1,12.24-6.81q1.73-.6,3.54-1.07H103.8V77H79.91V79a27.18,27.18,0,0,1-.95-3A26.55,26.55,0,0,1,78.18,69.5Z"/><path class="cls-1" d="M78.84,69.5c0-8.62,4.24-16.43,11.09-22.08a39.18,39.18,0,0,1,12-6.69q1.7-.59,3.48-1.05H103.8V77H80.54v1.78a26.71,26.71,0,0,1-.93-3A26.1,26.1,0,0,1,78.84,69.5Z"/><path class="cls-1" d="M79.5,69.5c0-8.47,4.16-16.14,10.89-21.7a38.49,38.49,0,0,1,11.82-6.58q1.67-.58,3.42-1H103.8V77H81.18v1.61a26.24,26.24,0,0,1-.92-2.94A25.64,25.64,0,0,1,79.5,69.5Z"/><path class="cls-1" d="M80.17,69.5c0-8.32,4.09-15.85,10.7-21.31a37.8,37.8,0,0,1,11.61-6.46q1.64-.57,3.36-1h-2V77h-22v1.45a25.78,25.78,0,0,1-.9-2.89A25.18,25.18,0,0,1,80.17,69.5Z"/><path class="cls-1" d="M80.83,69.5c0-8.17,4-15.57,10.5-20.92a37.12,37.12,0,0,1,11.4-6.34q1.61-.56,3.29-1H103.8V77H82.45V78.3a25.31,25.31,0,0,1-.88-2.84A24.72,24.72,0,0,1,80.83,69.5Z"/><path class="cls-1" d="M81.5,69.5c0-8,3.94-15.28,10.31-20.53A36.43,36.43,0,0,1,103,42.75q1.58-.55,3.23-1H103.8V77H83.08v1.13a24.83,24.83,0,0,1-.87-2.78A24.26,24.26,0,0,1,81.5,69.5Z"/><path class="cls-1" d="M82.16,69.5c0-7.87,3.87-15,10.11-20.15a35.74,35.74,0,0,1,11-6.11q.77-.27,1.57-.51h-1V77H83.71v1a24.37,24.37,0,0,1-.85-2.73A23.81,23.81,0,0,1,82.16,69.5Z"/><path class="cls-1" d="M82.83,69.5c0-7.72,3.79-14.7,9.92-19.76a35.05,35.05,0,0,1,10.77-6q.76-.27,1.54-.5H103.8V77H84.35v.8a23.9,23.9,0,0,1-.83-2.68A23.35,23.35,0,0,1,82.83,69.5Z"/><path class="cls-1" d="M83.49,69.5c0-7.56,3.72-14.41,9.73-19.37a34.36,34.36,0,0,1,10.55-5.87q.74-.26,1.51-.49H103.8V77H85v.64A23.43,23.43,0,0,1,84.16,75,22.89,22.89,0,0,1,83.49,69.5Z"/><path class="cls-1" d="M84.15,69.5c0-7.41,3.64-14.13,9.53-19A33.68,33.68,0,0,1,104,44.77h-.23V77H85.62v.47a23,23,0,0,1-.8-2.57A22.43,22.43,0,0,1,84.15,69.5Z"/><path class="cls-1" d="M84.82,69.5c0-7.26,3.57-13.84,9.34-18.6a33,33,0,0,1,10.13-5.64h-.48V77H86.25v.31a22.49,22.49,0,0,1-.79-2.52A22,22,0,0,1,84.82,69.5Z"/><path class="cls-1" d="M85.48,69.5c0-7.11,3.49-13.55,9.14-18.21a32.3,32.3,0,0,1,9.92-5.52h-.74V77H86.88v.15a22,22,0,0,1-.77-2.47A21.52,21.52,0,0,1,85.48,69.5Z"/><path class="cls-1" d="M86.15,69.5c0-7,3.42-13.26,8.95-17.82a31.62,31.62,0,0,1,9.71-5.4h-1V77H88.55v2.3A21.39,21.39,0,0,1,86.15,69.5Z"/><path class="cls-1" d="M86.81,69.5c0-6.81,3.34-13,8.75-17.43a30.93,30.93,0,0,1,9.5-5.28H103.8V77H89.16V79.1A20.93,20.93,0,0,1,86.81,69.5Z"/><path class="cls-1" d="M87.47,69.5c0-6.66,3.27-12.68,8.56-17a30.24,30.24,0,0,1,9.29-5.17H103.8V77h-14v1.87A20.46,20.46,0,0,1,87.47,69.5Z"/><path class="cls-1" d="M88.14,69.5c0-6.51,3.2-12.4,8.36-16.66a29.55,29.55,0,0,1,9.08-5H103.8V77H90.38v1.66A20,20,0,0,1,88.14,69.5Z"/><path class="cls-1" d="M88.8,69.5c0-6.35,3.12-12.11,8.17-16.27a28.87,28.87,0,0,1,8.87-4.93h-2V77H91v1.45A19.53,19.53,0,0,1,88.8,69.5Z"/><path class="cls-1" d="M89.47,69.5c0-6.2,3-11.82,8-15.88a28.18,28.18,0,0,1,8.65-4.81H103.8V77H91.61v1.23A19.07,19.07,0,0,1,89.47,69.5Z"/><path class="cls-1" d="M90.13,69.5c0-6.05,3-11.53,7.78-15.5a26.28,26.28,0,0,1,3.93-2.68q1.06-.59,2.19-1.1h-.23V77H92.22v1A18.6,18.6,0,0,1,90.13,69.5Z"/><path class="cls-1" d="M90.79,69.5a19.63,19.63,0,0,1,7.59-15.11,25.62,25.62,0,0,1,3.83-2.61q1-.58,2.14-1.07h-.55V77h-11v.81A18.14,18.14,0,0,1,90.79,69.5Z"/><path class="cls-1" d="M91.46,69.5a19.13,19.13,0,0,1,7.39-14.72,25,25,0,0,1,3.73-2.54q1-.56,2.08-1h-.86V77H93.44v.59A17.67,17.67,0,0,1,91.46,69.5Z"/><path class="cls-1" d="M92.12,69.5a18.62,18.62,0,0,1,7.2-14.33A24.31,24.31,0,0,1,103,52.69q1-.55,2-1H103.8V77H94.05v.38A17.21,17.21,0,0,1,92.12,69.5Z"/><path class="cls-1" d="M92.79,69.5a18.12,18.12,0,0,1,7-13.95,23.65,23.65,0,0,1,3.54-2.41q1-.53,2-1h-1.5V77H94.66v.17A16.74,16.74,0,0,1,92.79,69.5Z"/><path class="cls-1" d="M93.45,69.5a17.62,17.62,0,0,1,6.81-13.56,23,23,0,0,1,3.44-2.34q.93-.52,1.92-1H103.8V77H96.26v1.63a17.89,17.89,0,0,1-1-1.68A16.28,16.28,0,0,1,93.45,69.5Z"/><path class="cls-1" d="M94.11,69.5a17.11,17.11,0,0,1,6.61-13.17,22.34,22.34,0,0,1,3.34-2.27h-.27V77h-7v1.37a17.37,17.37,0,0,1-1-1.63A15.81,15.81,0,0,1,94.11,69.5Z"/><path class="cls-1" d="M94.78,69.5a16.61,16.61,0,0,1,6.42-12.78,21.68,21.68,0,0,1,3.24-2.21h-.64V77H97.42v1.11a16.88,16.88,0,0,1-.92-1.58A15.35,15.35,0,0,1,94.78,69.5Z"/><path class="cls-1" d="M95.44,69.5a16.11,16.11,0,0,1,6.22-12.4A21,21,0,0,1,104.81,55h-1V77H99.07v2.29a16.81,16.81,0,0,1-2-3A14.88,14.88,0,0,1,95.44,69.5Z"/><path class="cls-1" d="M96.11,69.5a15.6,15.6,0,0,1,6-12,20.36,20.36,0,0,1,3-2.07H103.8V77H99.62v2a16.29,16.29,0,0,1-1.9-2.89A14.42,14.42,0,0,1,96.11,69.5Z"/><path class="cls-1" d="M96.77,69.5a15.1,15.1,0,0,1,5.84-11.62,19.7,19.7,0,0,1,2.95-2H103.8V77h-3.63v1.68a15.76,15.76,0,0,1-1.84-2.79A14,14,0,0,1,96.77,69.5Z"/><path class="cls-1" d="M97.43,69.5a14.6,14.6,0,0,1,5.64-11.24,19.05,19.05,0,0,1,2.85-1.94H103.8V77h-3.08v1.37a15.23,15.23,0,0,1-1.78-2.7A13.49,13.49,0,0,1,97.43,69.5Z"/><path class="cls-1" d="M98.1,69.5a14.09,14.09,0,0,1,5.45-10.85,18.4,18.4,0,0,1,2.75-1.87H103.8V77h-2.53v1.07a14.71,14.71,0,0,1-1.71-2.61A13,13,0,0,1,98.1,69.5Z"/><path class="cls-1" d="M98.76,69.5A13.59,13.59,0,0,1,104,59h-.21V77h-2v.76a14.18,14.18,0,0,1-1.65-2.51A12.56,12.56,0,0,1,98.76,69.5Z"/><path class="cls-1" d="M99.43,69.5a13.09,13.09,0,0,1,5.06-10.07h-.68V77h-1.43v.45A13.66,13.66,0,0,1,100.78,75,12.09,12.09,0,0,1,99.43,69.5Z"/><path class="cls-1" d="M100.09,69.5A12.58,12.58,0,0,1,105,59.82H103.8V77L105,79.19A12.58,12.58,0,0,1,100.09,69.5Z"/><path class="cls-1" d="M100.76,69.5a12.08,12.08,0,0,1,4.67-9.3H103.8V77l1.62,1.79A12.08,12.08,0,0,1,100.76,69.5Z"/><path class="cls-1" d="M101.42,69.5a11.58,11.58,0,0,1,4.47-8.91H103.8V77l2.09,1.4A11.58,11.58,0,0,1,101.42,69.5Z"/><path class="cls-1" d="M102.08,69.5a10.23,10.23,0,0,1,1.15-4.69,11.56,11.56,0,0,1,1.35-2h-.78V76.24h.78a11.56,11.56,0,0,1-1.35-2A10.23,10.23,0,0,1,102.08,69.5Z"/><path class="cls-1" d="M102.75,69.5a9.77,9.77,0,0,1,1.1-4.48h0v9h0A9.77,9.77,0,0,1,102.75,69.5Z"/><path class="cls-1" d="M103.41,69.5a9.3,9.3,0,0,1,1-4.27h-.65v8.53h.65A9.3,9.3,0,0,1,103.41,69.5Z"/></g><polygon class="cls-3" points="103.44 21.4 33.45 55.34 10.46 42.06 103.44 21.4"/><polygon class="cls-3" points="103.44 21.4 44.67 61.81 67.67 75.09 103.44 21.4"/><polygon class="cls-4" points="44.67 61.81 103.44 21.4 33.45 55.34 39.06 76.66 44.67 61.81"/><polygon class="cls-1" points="32.43 54.74 103.44 21.4 33.45 55.34 32.43 54.74"/><polygon class="cls-1" points="44.67 61.81 103.44 21.4 45.59 62.34 44.67 61.81"/><polygon class="cls-5" points="101.22 78.46 27.77 94.77 45.13 104.79 45.13 104.79 45.94 105.26 55.64 104.56 60.31 113.56 72.96 120.86 101.22 78.46"/></svg>